<?xml version="1.0" encoding="utf-8" standalone="no"?>
<!DOCTYPE svg PUBLIC "-//W3C//DTD SVG 1.1//EN"
  "http://www.w3.org/Graphics/SVG/1.1/DTD/svg11.dtd">
<!-- Created with matplotlib (https://matplotlib.org/) -->
<svg height="519.84pt" version="1.1" viewBox="0 0 519.84 519.84" width="519.84pt" xmlns="http://www.w3.org/2000/svg" xmlns:xlink="http://www.w3.org/1999/xlink">
 <defs>
  <style type="text/css">
*{stroke-linecap:butt;stroke-linejoin:round;}
  </style>
 </defs>
 <g id="figure_1">
  <g id="patch_1">
   <path d="M 0 519.84 
L 519.84 519.84 
L 519.84 0 
L 0 0 
z
" style="fill:#ffffff;"/>
  </g>
  <g id="axes_1">
   <g id="patch_2">
    <path d="M 5 471.053314 
L 518.34 471.053314 
L 518.34 48.786686 
L 5 48.786686 
z
" style="fill:#ffffff;"/>
   </g>
   <g id="PatchCollection_1">
    <path clip-path="url(#p4bfa4cb6cc)" d="M 416.670207 266.442977 
L 420.684906 266.880117 
L 423.666266 263.169157 
L 426.882642 260.942723 
L 439.805267 255.025742 
L 454.712572 250.418506 
L 461.186569 247.584976 
L 474.259671 239.440778 
L 478.225962 239.805562 
L 484.564279 239.355142 
L 487.892166 237.767876 
L 486.13316 242.585425 
L 486.913492 246.817407 
L 488.893454 249.873784 
L 490.315905 254.022623 
L 490.835472 258.943517 
L 493.505324 265.585254 
L 492.858652 276.967389 
L 494.817533 278.609442 
L 494.309608 283.659113 
L 495.006364 287.44292 
L 493.014796 287.715993 
L 490.245016 285.707136 
L 486.39049 287.714901 
L 482.742032 287.204194 
L 475.901836 289.065875 
L 472.562189 287.990306 
L 461.809062 303.499805 
L 461.488302 310.064607 
L 457.208249 315.271241 
L 455.281315 320.280452 
L 453.161975 320.394818 
L 451.970015 324.015384 
L 451.837993 327.472376 
L 450.26784 326.79169 
L 423.401924 311.81854 
L 424.833188 308.67339 
L 427.966819 297.122454 
L 422.712083 293.74292 
L 412.744998 290.169085 
L 415.54183 284.43431 
L 417.569307 276.29419 
L 417.577598 268.880651 
L 416.670207 266.442977 
" style="fill:none;stroke:#333333;stroke-opacity:0.3;"/>
    <path clip-path="url(#p4bfa4cb6cc)" d="M 365.22598 316.044071 
L 371.798743 317.970071 
L 377.069704 318.163643 
L 384.548213 316.97433 
L 393.433321 313.645488 
L 400.698428 312.439692 
L 405.121812 303.488451 
L 412.744998 290.169085 
L 422.712083 293.74292 
L 427.966819 297.122454 
L 424.833188 308.67339 
L 423.401924 311.81854 
L 450.26784 326.79169 
L 451.837993 327.472376 
L 451.80963 329.400216 
L 449.495596 331.168867 
L 447.947677 333.996556 
L 446.661207 339.244618 
L 447.958759 343.662945 
L 452.533539 346.409199 
L 455.265443 346.736348 
L 457.983256 344.99184 
L 459.961295 346.90111 
L 467.602734 348.986617 
L 470.537455 350.98487 
L 468.86945 355.796199 
L 469.054182 359.153482 
L 467.08955 364.581218 
L 465.438033 366.909674 
L 459.873439 368.721867 
L 457.137707 379.113301 
L 457.162061 381.673963 
L 453.898766 384.233818 
L 448.973144 384.404562 
L 445.584574 388.755302 
L 440.225095 386.578744 
L 436.321651 385.977376 
L 436.61069 391.136667 
L 441.55608 394.565619 
L 438.513306 396.500679 
L 434.122212 396.494193 
L 430.158675 394.200018 
L 430.167227 397.738474 
L 426.941936 400.28655 
L 426.951103 397.44067 
L 424.983878 393.018943 
L 415.121334 376.045978 
L 415.768676 374.500785 
L 412.181139 367.498549 
L 408.414689 363.417795 
L 404.552961 360.435728 
L 398.440806 357.203851 
L 377.976338 350.441627 
L 373.491539 349.342525 
L 368.398762 344.238813 
L 365.445109 323.221688 
L 364.706745 321.885594 
L 365.22598 316.044071 
" style="fill:none;stroke:#333333;stroke-opacity:0.3;"/>
    <path clip-path="url(#p4bfa4cb6cc)" d="M 353.631108 310.38758 
L 365.22598 316.044071 
L 364.706745 321.885594 
L 365.445109 323.221688 
L 368.398762 344.238813 
L 373.491539 349.342525 
L 377.976338 350.441627 
L 398.440806 357.203851 
L 404.552961 360.435728 
L 408.414689 363.417795 
L 412.181139 367.498549 
L 415.768676 374.500785 
L 415.121334 376.045978 
L 424.983878 393.018943 
L 426.951103 397.44067 
L 426.941936 400.28655 
L 421.551457 404.566959 
L 420.755749 409.600863 
L 416.850403 407.573111 
L 415.483469 405.427252 
L 409.110768 404.051013 
L 405.982006 408.149776 
L 400.084424 409.319394 
L 397.968622 405.607606 
L 396.517552 402.476168 
L 389.011163 395.902295 
L 384.777972 389.509733 
L 384.559198 385.8039 
L 377.721703 386.823783 
L 372.978978 389.529173 
L 371.573535 386.79749 
L 368.843324 386.294637 
L 367.770599 388.083077 
L 360.28433 389.550937 
L 359.257888 395.016214 
L 353.833546 395.773929 
L 350.556742 395.336205 
L 340.762702 383.297399 
L 336.65366 371.640996 
L 328.587738 373.056596 
L 325.803519 366.040974 
L 313.460901 333.362951 
L 310.930249 322.463518 
L 309.580767 319.131277 
L 303.774663 312.160179 
L 313.876044 301.918661 
L 318.261937 298.361085 
L 323.839421 296.649131 
L 341.802495 305.600725 
L 342.884592 303.204675 
L 345.256686 305.53153 
L 353.631108 310.38758 
" style="fill:none;stroke:#333333;stroke-opacity:0.3;"/>
    <path clip-path="url(#p4bfa4cb6cc)" d="M 303.774663 312.160179 
L 309.580767 319.131277 
L 310.930249 322.463518 
L 313.460901 333.362951 
L 325.803519 366.040974 
L 328.587738 373.056596 
L 336.65366 371.640996 
L 340.762702 383.297399 
L 350.556742 395.336205 
L 353.833546 395.773929 
L 359.257888 395.016214 
L 360.28433 389.550937 
L 367.770599 388.083077 
L 368.843324 386.294637 
L 371.573535 386.79749 
L 372.978978 389.529173 
L 377.721703 386.823783 
L 384.559198 385.8039 
L 384.777972 389.509733 
L 389.011163 395.902295 
L 396.517552 402.476168 
L 397.968622 405.607606 
L 396.083273 409.336704 
L 396.623242 412.465633 
L 394.993264 413.05434 
L 393.835073 416.475963 
L 391.839969 417.710167 
L 389.103477 422.83994 
L 389.092746 427.632756 
L 384.371233 430.141148 
L 382.345814 434.077197 
L 373.920782 432.361792 
L 370.455544 433.238281 
L 370.809718 435.757589 
L 373.697638 437.436146 
L 372.996677 439.841325 
L 370.292891 441.397901 
L 369.291151 446.729217 
L 370.031816 448.488902 
L 364.984773 449.652039 
L 363.788656 451.228875 
L 358.652167 449.689374 
L 355.096812 449.645942 
L 348.692537 451.859376 
L 346.155514 449.398402 
L 343.521815 448.678347 
L 342.280323 444.933243 
L 334.941358 437.874391 
L 330.538922 436.952673 
L 330.036403 434.112523 
L 333.158064 429.115661 
L 332.357005 426.768256 
L 332.691292 422.577784 
L 330.858564 419.474834 
L 331.871023 415.2034 
L 331.486032 412.364089 
L 329.407715 410.175502 
L 328.045614 405.540281 
L 329.279577 402.207898 
L 325.413791 399.495382 
L 319.653278 409.718366 
L 313.439548 413.014436 
L 308.573248 414.138333 
L 302.872799 414.110611 
L 300.582814 411.321143 
L 297.520755 404.557805 
L 296.429643 403.929375 
L 294.353115 397.407076 
L 288.287689 397.256922 
L 286.381499 398.169442 
L 287.435818 402.074725 
L 287.002724 404.547418 
L 282.956778 405.63761 
L 277.843492 410.245546 
L 276.557143 407.045226 
L 277.334286 399.84817 
L 275.883283 396.575777 
L 273.278385 393.90899 
L 271.058809 389.651854 
L 269.987286 384.17384 
L 271.465686 356.439751 
L 273.893092 351.3371 
L 269.510871 348.114476 
L 268.581031 345.701841 
L 268.382815 334.284715 
L 271.001228 332.331324 
L 276.462414 332.08555 
L 278.690323 333.454506 
L 288.326043 327.83137 
L 294.699185 323.605561 
L 297.316417 320.977319 
L 299.59305 316.408953 
L 303.774663 312.160179 
" style="fill:none;stroke:#333333;stroke-opacity:0.3;"/>
    <path clip-path="url(#p4bfa4cb6cc)" d="M 269.987286 384.17384 
L 271.058809 389.651854 
L 273.278385 393.90899 
L 275.883283 396.575777 
L 277.334286 399.84817 
L 276.557143 407.045226 
L 277.843492 410.245546 
L 271.287517 412.225221 
L 269.166568 417.44835 
L 264.046705 421.032793 
L 261.516886 425.07076 
L 258.224625 425.164068 
L 250.839697 427.911943 
L 250.481129 432.686292 
L 249.385195 434.271527 
L 245.240042 434.68374 
L 244.193104 436.395792 
L 238.309525 436.399805 
L 229.49326 439.168947 
L 226.186054 439.179279 
L 222.980349 441.444822 
L 221.693071 439.375526 
L 221.903878 435.32503 
L 218.707554 431.222177 
L 213.612235 427.728591 
L 213.569532 424.299514 
L 211.063247 421.421437 
L 204.855861 415.461615 
L 204.014866 412.219822 
L 197.718943 410.773605 
L 195.369608 410.837149 
L 194.970967 405.495172 
L 193.339817 402.028764 
L 194.331977 400.187892 
L 191.994437 398.379464 
L 188.174666 389.855005 
L 190.949521 388.431138 
L 192.343584 383.736052 
L 189.576383 382.007726 
L 189.842406 378.142561 
L 179.748591 380.426244 
L 178.403852 378.993456 
L 182.596049 372.461656 
L 185.648389 372.458124 
L 193.771369 369.35037 
L 198.041035 366.235528 
L 206.101905 365.456446 
L 208.66705 359.601369 
L 209.917745 358.387233 
L 213.985086 360.843726 
L 217.592107 361.083587 
L 219.535736 362.370266 
L 225.436614 362.320809 
L 231.56523 359.695485 
L 236.855013 362.089973 
L 239.081094 363.990579 
L 242.255506 363.219226 
L 247.257832 360.639336 
L 246.835046 364.228265 
L 248.532485 369.307591 
L 247.420512 374.574306 
L 257.621434 385.996053 
L 264.791421 384.302215 
L 269.987286 384.17384 
" style="fill:none;stroke:#333333;stroke-opacity:0.3;"/>
    <path clip-path="url(#p4bfa4cb6cc)" d="M 268.382815 334.284715 
L 268.581031 345.701841 
L 269.510871 348.114476 
L 273.893092 351.3371 
L 271.465686 356.439751 
L 269.987286 384.17384 
L 264.791421 384.302215 
L 257.621434 385.996053 
L 247.420512 374.574306 
L 248.532485 369.307591 
L 246.835046 364.228265 
L 247.257832 360.639336 
L 242.255506 363.219226 
L 239.081094 363.990579 
L 236.855013 362.089973 
L 231.56523 359.695485 
L 225.436614 362.320809 
L 219.535736 362.370266 
L 217.592107 361.083587 
L 213.985086 360.843726 
L 209.917745 358.387233 
L 208.66705 359.601369 
L 206.101905 365.456446 
L 198.041035 366.235528 
L 193.771369 369.35037 
L 185.648389 372.458124 
L 182.596049 372.461656 
L 192.967332 356.421644 
L 200.952915 354.58043 
L 202.590227 348.401535 
L 207.327624 333.518488 
L 209.228922 333.043917 
L 208.009796 328.683568 
L 215.175489 329.309229 
L 225.817938 326.805181 
L 235.215919 323.1555 
L 238.582539 326.657293 
L 243.026099 329.810041 
L 251.054483 333.354954 
L 268.382815 334.284715 
" style="fill:none;stroke:#333333;stroke-opacity:0.3;"/>
    <path clip-path="url(#p4bfa4cb6cc)" d="M 167.569521 280.736708 
L 179.798323 289.231555 
L 185.911028 292.228739 
L 211.600261 299.336629 
L 217.709683 300.333319 
L 227.595573 309.940454 
L 231.096842 313.272743 
L 232.470445 318.152282 
L 235.215919 323.1555 
L 225.817938 326.805181 
L 215.175489 329.309229 
L 208.009796 328.683568 
L 209.228922 333.043917 
L 207.327624 333.518488 
L 202.590227 348.401535 
L 200.952915 354.58043 
L 192.967332 356.421644 
L 182.596049 372.461656 
L 179.564814 371.553604 
L 175.116717 366.730803 
L 171.990531 355.954221 
L 171.639327 346.924523 
L 172.143497 340.812629 
L 168.339444 335.071417 
L 156.101352 327.735159 
L 156.491378 320.103549 
L 157.257991 315.838322 
L 158.626095 314.291811 
L 164.447862 311.011214 
L 166.149907 308.106641 
L 167.891899 308.586734 
L 169.544442 304.704469 
L 169.29279 300.917152 
L 164.82319 290.265271 
L 163.566653 289.989863 
L 162.573594 286.1805 
L 167.569521 280.736708 
" style="fill:none;stroke:#333333;stroke-opacity:0.3;"/>
    <path clip-path="url(#p4bfa4cb6cc)" d="M 178.403852 378.993456 
L 179.748591 380.426244 
L 189.842406 378.142561 
L 189.576383 382.007726 
L 192.343584 383.736052 
L 190.949521 388.431138 
L 188.174666 389.855005 
L 191.994437 398.379464 
L 194.331977 400.187892 
L 193.339817 402.028764 
L 194.970967 405.495172 
L 195.369608 410.837149 
L 197.718943 410.773605 
L 204.014866 412.219822 
L 204.855861 415.461615 
L 211.063247 421.421437 
L 205.179035 426.495897 
L 202.523689 429.958927 
L 201.191014 433.946633 
L 199.020897 435.906946 
L 194.973916 435.710125 
L 191.658077 439.204554 
L 188.738008 444.458225 
L 182.10144 444.049738 
L 182.023169 441.48363 
L 178.30921 438.376224 
L 177.571517 436.735171 
L 177.83772 431.371523 
L 177.017089 429.214318 
L 174.078955 427.719148 
L 174.571218 424.054939 
L 172.386236 417.978123 
L 170.774622 418.991864 
L 167.263511 417.817681 
L 166.777311 414.406193 
L 163.629376 412.70317 
L 163.574738 408.407254 
L 166.336741 404.140021 
L 156.572176 389.63428 
L 152.960447 382.909191 
L 149.380109 372.910019 
L 150.824538 371.904894 
L 155.239303 370.207681 
L 157.423797 371.079262 
L 163.315259 375.877741 
L 166.813563 380.007036 
L 173.205269 381.571719 
L 177.828827 380.950502 
L 178.403852 378.993456 
" style="fill:none;stroke:#333333;stroke-opacity:0.3;"/>
    <path clip-path="url(#p4bfa4cb6cc)" d="M 95.113338 339.666732 
L 99.954055 339.776207 
L 103.26686 344.041172 
L 108.077379 347.876901 
L 112.762294 345.716252 
L 112.124132 343.545402 
L 117.43642 343.351394 
L 117.894772 340.043985 
L 121.786539 338.921509 
L 123.350117 337.104804 
L 126.464554 336.452455 
L 129.452625 338.335648 
L 132.324093 337.341143 
L 134.499014 341.925398 
L 137.124711 341.926636 
L 137.91451 343.945673 
L 140.919754 343.513012 
L 144.422165 344.521492 
L 148.029284 343.728444 
L 149.415342 339.341855 
L 154.969395 331.238203 
L 156.101352 327.735159 
L 168.339444 335.071417 
L 172.143497 340.812629 
L 171.639327 346.924523 
L 171.990531 355.954221 
L 175.116717 366.730803 
L 179.564814 371.553604 
L 182.596049 372.461656 
L 178.403852 378.993456 
L 177.828827 380.950502 
L 173.205269 381.571719 
L 166.813563 380.007036 
L 163.315259 375.877741 
L 157.423797 371.079262 
L 155.239303 370.207681 
L 150.824538 371.904894 
L 153.541734 368.303409 
L 152.213654 366.739797 
L 148.790062 367.750359 
L 148.780513 365.349817 
L 143.03772 360.091573 
L 139.754514 363.570139 
L 135.781321 365.651657 
L 131.819996 371.17705 
L 128.920063 372.152996 
L 127.397774 375.415283 
L 125.336882 377.182805 
L 119.942615 376.575038 
L 118.717748 378.118262 
L 118.251227 387.535456 
L 111.465631 385.522355 
L 107.009211 386.062616 
L 102.919574 382.890827 
L 100.11642 384.757654 
L 94.800427 384.470772 
L 92.116359 385.44773 
L 89.445554 382.31062 
L 89.745508 377.084598 
L 88.994415 373.60982 
L 89.767983 371.313552 
L 93.667999 368.533117 
L 92.816196 365.436476 
L 87.362775 363.178764 
L 83.532809 360.819044 
L 81.64755 356.729713 
L 82.065461 354.096549 
L 84.890655 354.779909 
L 88.364388 353.093228 
L 89.721724 349.478086 
L 91.543075 348.434175 
L 93.068495 343.132945 
L 92.672696 340.408667 
L 95.113338 339.666732 
" style="fill:none;stroke:#333333;stroke-opacity:0.3;"/>
    <path clip-path="url(#p4bfa4cb6cc)" d="M 131.874839 246.302613 
L 131.497762 251.326496 
L 132.600871 253.368761 
L 141.390648 258.616782 
L 154.333858 269.855979 
L 167.569521 280.736708 
L 162.573594 286.1805 
L 163.566653 289.989863 
L 162.441403 289.998775 
L 157.485634 283.975355 
L 150.017789 285.302543 
L 146.318398 284.282669 
L 139.160683 279.023105 
L 136.809314 288.67821 
L 138.543538 293.684329 
L 138.189378 299.793752 
L 138.855194 309.402851 
L 121.995522 312.077402 
L 112.614694 313.99319 
L 105.903946 300.014904 
L 106.584281 298.237563 
L 104.421684 292.458183 
L 101.419316 292.584443 
L 100.729812 289.050471 
L 98.782588 287.437976 
L 97.363302 292.386675 
L 92.160397 294.093369 
L 83.80579 294.151249 
L 79.030434 292.784876 
L 77.887838 290.638653 
L 71.187531 290.986166 
L 67.201062 294.424492 
L 66.147215 298.104223 
L 61.66035 300.918651 
L 60.472801 295.836927 
L 61.716439 292.999027 
L 58.315566 292.487553 
L 58.287186 289.643349 
L 54.8227 288.786651 
L 52.644437 286.13514 
L 45.039381 286.258198 
L 40.108388 282.510087 
L 35.292561 282.793183 
L 31.41795 276.309175 
L 28.333636 273.072093 
L 32.506684 272.865544 
L 33.292671 270.931371 
L 41.478775 264.104486 
L 41.590684 261.056716 
L 39.160359 256.580452 
L 42.676482 256.998315 
L 45.638133 255.420799 
L 48.091109 252.480862 
L 47.271327 250.227659 
L 48.368512 247.625693 
L 55.905823 242.252711 
L 60.002743 242.554952 
L 59.818366 238.205589 
L 60.516693 234.551961 
L 62.892989 234.32011 
L 66.150713 227.191516 
L 68.360575 226.088928 
L 66.602147 223.017082 
L 66.804346 220.583648 
L 64.757845 216.59092 
L 64.136187 212.74488 
L 65.652356 209.123592 
L 67.346657 208.74475 
L 68.127219 204.846561 
L 69.524137 204.080125 
L 73.59843 205.430468 
L 85.370339 218.559637 
L 90.243472 223.516364 
L 97.379881 227.008337 
L 124.275474 244.928234 
L 131.874839 246.302613 
" style="fill:none;stroke:#333333;stroke-opacity:0.3;"/>
    <path clip-path="url(#p4bfa4cb6cc)" d="M 92.160397 294.093369 
L 97.363302 292.386675 
L 98.782588 287.437976 
L 100.729812 289.050471 
L 101.419316 292.584443 
L 104.421684 292.458183 
L 106.584281 298.237563 
L 105.903946 300.014904 
L 112.614694 313.99319 
L 121.995522 312.077402 
L 138.855194 309.402851 
L 138.189378 299.793752 
L 138.543538 293.684329 
L 136.809314 288.67821 
L 139.160683 279.023105 
L 146.318398 284.282669 
L 150.017789 285.302543 
L 157.485634 283.975355 
L 162.441403 289.998775 
L 163.566653 289.989863 
L 164.82319 290.265271 
L 169.29279 300.917152 
L 169.544442 304.704469 
L 167.891899 308.586734 
L 166.149907 308.106641 
L 164.447862 311.011214 
L 158.626095 314.291811 
L 157.257991 315.838322 
L 156.491378 320.103549 
L 156.101352 327.735159 
L 154.969395 331.238203 
L 149.415342 339.341855 
L 148.029284 343.728444 
L 144.422165 344.521492 
L 140.919754 343.513012 
L 137.91451 343.945673 
L 137.124711 341.926636 
L 134.499014 341.925398 
L 132.324093 337.341143 
L 129.452625 338.335648 
L 126.464554 336.452455 
L 123.350117 337.104804 
L 121.786539 338.921509 
L 117.894772 340.043985 
L 117.43642 343.351394 
L 112.124132 343.545402 
L 112.762294 345.716252 
L 108.077379 347.876901 
L 103.26686 344.041172 
L 99.954055 339.776207 
L 95.113338 339.666732 
L 94.240509 336.392635 
L 94.859549 332.735382 
L 93.34605 328.557991 
L 95.95319 323.580045 
L 95.64503 319.214166 
L 99.202351 313.760285 
L 97.908569 309.676331 
L 96.021973 309.315743 
L 91.788199 302.375309 
L 92.160397 294.093369 
" style="fill:none;stroke:#333333;stroke-opacity:0.3;"/>
    <path clip-path="url(#p4bfa4cb6cc)" d="M 182.485524 243.138119 
L 180.790709 245.149778 
L 184.32774 248.061659 
L 201.076839 257.459722 
L 207.647838 259.460952 
L 210.503761 262.202328 
L 208.799076 265.500772 
L 208.695351 268.551533 
L 220.139018 273.791848 
L 224.782169 271.912017 
L 242.652475 270.454849 
L 244.480645 271.607724 
L 247.576046 268.520832 
L 249.376895 271.941212 
L 247.820508 273.460852 
L 248.583648 278.863018 
L 250.319259 281.411821 
L 248.062651 282.886571 
L 246.160495 286.171026 
L 244.247464 287.366395 
L 242.760318 292.548096 
L 236.228496 300.26444 
L 229.281132 302.177601 
L 227.595573 309.940454 
L 217.709683 300.333319 
L 211.600261 299.336629 
L 185.911028 292.228739 
L 179.798323 289.231555 
L 167.569521 280.736708 
L 154.333858 269.855979 
L 141.390648 258.616782 
L 132.600871 253.368761 
L 131.497762 251.326496 
L 131.874839 246.302613 
L 131.978303 244.926088 
L 136.304012 244.595089 
L 138.302529 243.47805 
L 140.597428 245.114542 
L 143.294562 242.432826 
L 146.352148 241.928935 
L 152.088662 239.333202 
L 153.452212 235.270438 
L 152.97761 232.965239 
L 155.55242 229.503114 
L 157.009454 225.198603 
L 159.189413 223.375326 
L 167.183418 231.985411 
L 171.446844 235.648354 
L 173.747262 236.705941 
L 176.925977 241.155588 
L 180.825152 244.507516 
L 182.485524 243.138119 
" style="fill:none;stroke:#333333;stroke-opacity:0.3;"/>
    <path clip-path="url(#p4bfa4cb6cc)" d="M 235.188371 199.536127 
L 237.7909 201.321966 
L 238.719365 204.122549 
L 237.834429 210.050784 
L 239.333461 212.66131 
L 242.737978 213.094682 
L 241.827284 217.447255 
L 244.054646 222.607386 
L 244.125049 224.699634 
L 242.242072 232.161956 
L 245.563245 235.253107 
L 241.231125 237.73882 
L 238.733962 240.346986 
L 253.324359 258.559895 
L 256.620912 264.074527 
L 253.619242 265.069616 
L 249.94749 267.87922 
L 247.576046 268.520832 
L 244.480645 271.607724 
L 242.652475 270.454849 
L 224.782169 271.912017 
L 220.139018 273.791848 
L 208.695351 268.551533 
L 208.799076 265.500772 
L 210.503761 262.202328 
L 207.647838 259.460952 
L 201.076839 257.459722 
L 184.32774 248.061659 
L 180.790709 245.149778 
L 182.485524 243.138119 
L 192.998966 230.290308 
L 197.044971 230.937115 
L 196.649062 234.340354 
L 203.922685 233.0967 
L 205.621452 228.618734 
L 208.080519 228.674982 
L 210.363989 226.966 
L 210.081723 224.041148 
L 211.292445 220.806112 
L 216.539725 215.689783 
L 224.369559 212.492755 
L 225.279341 206.202668 
L 226.310087 203.834394 
L 229.098903 203.839822 
L 231.533178 199.568668 
L 235.188371 199.536127 
" style="fill:none;stroke:#333333;stroke-opacity:0.3;"/>
    <path clip-path="url(#p4bfa4cb6cc)" d="M 259.068228 165.192725 
L 256.241847 168.094128 
L 245.411614 170.543611 
L 242.300378 174.929242 
L 237.190293 175.69285 
L 236.815598 180.2706 
L 235.587717 184.031867 
L 234.049253 185.686787 
L 235.209993 187.927789 
L 235.865027 193.655135 
L 234.524485 198.238573 
L 235.188371 199.536127 
L 231.533178 199.568668 
L 229.098903 203.839822 
L 226.310087 203.834394 
L 225.279341 206.202668 
L 224.369559 212.492755 
L 216.539725 215.689783 
L 211.292445 220.806112 
L 210.081723 224.041148 
L 210.363989 226.966 
L 208.080519 228.674982 
L 205.621452 228.618734 
L 203.922685 233.0967 
L 196.649062 234.340354 
L 197.044971 230.937115 
L 192.998966 230.290308 
L 182.485524 243.138119 
L 180.825152 244.507516 
L 176.925977 241.155588 
L 173.747262 236.705941 
L 171.446844 235.648354 
L 167.183418 231.985411 
L 159.189413 223.375326 
L 162.334476 219.351251 
L 164.796697 219.370024 
L 162.759667 223.161279 
L 164.789702 226.67102 
L 169.402999 226.865996 
L 171.452068 225.86958 
L 175.608612 226.633889 
L 178.820771 224.880403 
L 177.870338 220.951625 
L 181.08711 217.563526 
L 180.244044 214.371528 
L 180.659607 211.511787 
L 179.28863 206.182525 
L 181.322666 205.245353 
L 181.085775 196.546485 
L 180.043027 192.654644 
L 182.782302 184.16461 
L 184.711298 183.53585 
L 187.096983 179.788669 
L 186.176228 176.813827 
L 188.727872 173.788769 
L 189.122808 170.634728 
L 186.28271 164.856387 
L 191.107426 160.141368 
L 190.404869 156.212268 
L 192.060978 152.907273 
L 192.895879 148.30319 
L 187.526512 145.421391 
L 188.293907 143.808944 
L 194.487555 147.712966 
L 202.715077 146.518671 
L 207.35166 143.863156 
L 211.227672 140.315031 
L 217.470454 139.474862 
L 220.315758 137.549004 
L 224.050844 130.939335 
L 227.653022 128.790537 
L 231.762767 127.697406 
L 232.231493 129.853973 
L 236.163704 133.29982 
L 239.647991 132.854304 
L 242.314605 136.537543 
L 243.277662 141.430784 
L 246.075562 142.627597 
L 248.31208 149.406586 
L 250.852773 150.013317 
L 255.76396 156.192036 
L 255.699633 159.22368 
L 259.068228 165.192725 
" style="fill:none;stroke:#333333;stroke-opacity:0.3;"/>
    <path clip-path="url(#p4bfa4cb6cc)" d="M 408.447041 181.308064 
L 403.759163 182.758109 
L 401.858383 185.142717 
L 397.781361 186.558419 
L 389.973018 182.731893 
L 386.294686 182.110826 
L 381.042556 183.805036 
L 370.180826 188.63254 
L 366.392722 188.716515 
L 363.216236 190.709881 
L 359.708374 190.394934 
L 351.001633 182.234855 
L 346.292613 176.245475 
L 343.9573 172.756237 
L 336.806203 166.609597 
L 339.544088 163.57286 
L 340.747012 158.745882 
L 346.490854 147.57748 
L 351.814442 153.265704 
L 352.880691 145.93648 
L 351.095714 138.958209 
L 350.876385 132.191229 
L 348.043732 125.360603 
L 347.786115 121.05591 
L 344.995655 113.399353 
L 345.344064 107.732903 
L 346.855151 101.690299 
L 348.450772 91.295291 
L 347.174882 88.171882 
L 351.472026 84.986972 
L 353.922798 84.588663 
L 359.202735 85.709992 
L 363.164077 84.196449 
L 367.939217 77.837537 
L 371.868698 77.708567 
L 376.804921 74.997451 
L 381.738461 75.007155 
L 384.554811 78.337966 
L 386.726296 83.539436 
L 396.447714 85.153715 
L 397.935021 89.977965 
L 393.934383 95.824796 
L 392.963018 99.196163 
L 394.951896 102.805376 
L 395.907497 107.154848 
L 397.127724 108.173479 
L 397.516364 111.821545 
L 395.498495 117.378776 
L 398.004002 123.573283 
L 397.337602 126.868865 
L 386.843338 132.523791 
L 394.102268 133.400313 
L 395.471206 136.325917 
L 393.485206 140.375748 
L 396.224547 146.513407 
L 399.993533 147.125012 
L 402.693278 146.316071 
L 411.032381 147.810604 
L 415.41051 154.042182 
L 415.891311 161.052487 
L 414.328572 167.574647 
L 407.949188 172.75223 
L 407.932146 175.122601 
L 405.989891 178.394941 
L 408.447041 181.308064 
" style="fill:none;stroke:#333333;stroke-opacity:0.3;"/>
    <path clip-path="url(#p4bfa4cb6cc)" d="M 347.174882 88.171882 
L 348.450772 91.295291 
L 346.855151 101.690299 
L 345.344064 107.732903 
L 344.995655 113.399353 
L 347.786115 121.05591 
L 348.043732 125.360603 
L 350.876385 132.191229 
L 351.095714 138.958209 
L 352.880691 145.93648 
L 351.814442 153.265704 
L 346.490854 147.57748 
L 340.747012 158.745882 
L 339.544088 163.57286 
L 336.806203 166.609597 
L 333.457753 162.901862 
L 331.751382 158.921489 
L 329.020973 157.36068 
L 326.978912 152.042345 
L 321.095412 147.199898 
L 317.808506 143.817564 
L 313.104575 141.577631 
L 307.959104 141.527957 
L 305.311469 139.647271 
L 304.542169 137.136937 
L 306.030825 127.575588 
L 307.450499 123.955455 
L 308.003305 116.769138 
L 311.191349 112.181873 
L 309.089764 108.370595 
L 306.005979 104.563974 
L 303.824641 99.017111 
L 300.160443 98.435537 
L 299.787994 91.4698 
L 300.504922 87.93709 
L 299.545851 85.224739 
L 300.46059 77.332842 
L 303.865935 72.379717 
L 306.545805 72.354716 
L 308.295338 68.421682 
L 312.099275 67.980624 
L 315.17789 70.466534 
L 318.308909 70.701043 
L 321.861957 69.137098 
L 323.131808 71.316878 
L 323.698936 75.276108 
L 325.317048 79.914737 
L 326.702296 81.49161 
L 330.509465 80.855905 
L 337.076434 76.455791 
L 338.500364 78.72695 
L 341.420251 80.597898 
L 345.164108 78.42828 
L 347.174882 88.171882 
" style="fill:none;stroke:#333333;stroke-opacity:0.3;"/>
    <path clip-path="url(#p4bfa4cb6cc)" d="M 299.787994 91.4698 
L 300.160443 98.435537 
L 303.824641 99.017111 
L 306.005979 104.563974 
L 309.089764 108.370595 
L 311.191349 112.181873 
L 308.003305 116.769138 
L 307.450499 123.955455 
L 306.030825 127.575588 
L 304.542169 137.136937 
L 305.311469 139.647271 
L 307.959104 141.527957 
L 313.104575 141.577631 
L 317.808506 143.817564 
L 321.095412 147.199898 
L 326.978912 152.042345 
L 329.020973 157.36068 
L 331.751382 158.921489 
L 333.457753 162.901862 
L 336.806203 166.609597 
L 343.9573 172.756237 
L 346.292613 176.245475 
L 342.708132 178.921882 
L 339.571684 184.342617 
L 335.003931 188.629743 
L 331.604459 193.023693 
L 324.458293 197.763168 
L 324.216521 193.276255 
L 320.000838 192.794834 
L 315.338851 194.765492 
L 312.018529 191.270796 
L 306.992724 188.682417 
L 302.485691 187.484957 
L 300.021603 184.5458 
L 298.91007 181.04975 
L 299.322571 176.979345 
L 290.537416 174.354701 
L 286.714099 169.693259 
L 283.895463 168.427605 
L 282.946952 165.55532 
L 280.799793 165.581268 
L 274.480337 160.747034 
L 273.389356 159.170788 
L 275.10442 154.048602 
L 271.876612 149.284616 
L 273.767223 145.91194 
L 272.359821 140.568823 
L 269.524955 137.085716 
L 267.833184 133.393236 
L 268.178676 131.002178 
L 273.803179 127.175508 
L 277.394096 120.849468 
L 282.557433 119.1251 
L 283.52205 115.075219 
L 283.987409 109.008804 
L 282.683363 101.412464 
L 281.323897 98.845314 
L 283.719685 97.592375 
L 288.192873 92.720266 
L 294.515597 90.9204 
L 299.787994 91.4698 
" style="fill:none;stroke:#333333;stroke-opacity:0.3;"/>
    <path clip-path="url(#p4bfa4cb6cc)" d="M 262.736432 166.457867 
L 265.22756 163.477487 
L 269.9019 161.788661 
L 273.389356 159.170788 
L 274.480337 160.747034 
L 280.799793 165.581268 
L 282.946952 165.55532 
L 283.895463 168.427605 
L 286.714099 169.693259 
L 290.537416 174.354701 
L 299.322571 176.979345 
L 298.91007 181.04975 
L 300.021603 184.5458 
L 302.485691 187.484957 
L 306.992724 188.682417 
L 312.018529 191.270796 
L 315.338851 194.765492 
L 320.000838 192.794834 
L 324.216521 193.276255 
L 324.458293 197.763168 
L 331.604459 193.023693 
L 335.003931 188.629743 
L 339.571684 184.342617 
L 342.708132 178.921882 
L 346.292613 176.245475 
L 351.001633 182.234855 
L 359.708374 190.394934 
L 363.216236 190.709881 
L 366.392722 188.716515 
L 370.180826 188.63254 
L 370.531735 201.038265 
L 369.137944 197.486969 
L 367.040964 197.505237 
L 367.204079 200.954576 
L 363.510701 202.860401 
L 359.848545 203.39596 
L 356.525214 209.182554 
L 354.536474 208.46106 
L 348.571846 210.689753 
L 346.612564 209.067887 
L 343.683552 215.846767 
L 339.643307 215.818673 
L 335.821633 217.394208 
L 334.108236 222.907268 
L 331.125432 224.802256 
L 323.008078 235.423725 
L 316.379023 241.521286 
L 314.911782 240.36486 
L 310.934734 240.781626 
L 308.819071 236.17276 
L 306.918092 235.632453 
L 300.399198 238.128482 
L 298.392177 235.840327 
L 298.193189 231.297593 
L 297.155623 229.042415 
L 293.248524 226.02053 
L 291.588423 221.327246 
L 285.672713 221.542931 
L 284.266007 222.940776 
L 280.924167 222.781394 
L 275.457214 221.167217 
L 272.5442 219.275896 
L 270.473355 216.471663 
L 269.977073 211.827629 
L 273.704809 211.412119 
L 276.864298 208.912071 
L 274.811438 200.581312 
L 275.992606 195.742475 
L 275.699811 189.960542 
L 271.359557 187.132105 
L 269.200571 178.60697 
L 267.347239 176.047215 
L 267.69915 169.531035 
L 264.518046 170.033777 
L 262.736432 166.457867 
" style="fill:none;stroke:#333333;stroke-opacity:0.3;"/>
    <path clip-path="url(#p4bfa4cb6cc)" d="M 370.180826 188.63254 
L 381.042556 183.805036 
L 386.294686 182.110826 
L 389.973018 182.731893 
L 397.781361 186.558419 
L 401.858383 185.142717 
L 403.759163 182.758109 
L 408.447041 181.308064 
L 414.726768 181.559349 
L 421.095177 185.588379 
L 420.662648 187.851265 
L 421.693745 194.150357 
L 420.646691 198.09747 
L 422.508477 199.909979 
L 422.167229 204.182448 
L 417.505516 210.674608 
L 417.751971 212.022742 
L 422.565108 217.640704 
L 421.958098 219.059094 
L 416.977679 220.019686 
L 413.819845 225.814569 
L 412.481916 232.20316 
L 403.686308 233.403688 
L 405.165404 236.285991 
L 405.057151 241.153868 
L 403.251178 244.777856 
L 403.114768 247.82838 
L 401.505768 249.278315 
L 392.222562 253.457867 
L 383.586893 250.924164 
L 378.180823 250.219064 
L 377.746807 241.558364 
L 376.438771 236.863618 
L 369.914912 226.454943 
L 367.968039 215.960804 
L 368.674198 213.198694 
L 371.364077 209.059748 
L 371.628172 206.693116 
L 370.531735 201.038265 
L 370.180826 188.63254 
" style="fill:none;stroke:#333333;stroke-opacity:0.3;"/>
    <path clip-path="url(#p4bfa4cb6cc)" d="M 316.379023 241.521286 
L 323.008078 235.423725 
L 331.125432 224.802256 
L 334.108236 222.907268 
L 335.821633 217.394208 
L 339.643307 215.818673 
L 343.683552 215.846767 
L 346.612564 209.067887 
L 348.571846 210.689753 
L 354.536474 208.46106 
L 356.525214 209.182554 
L 359.848545 203.39596 
L 363.510701 202.860401 
L 367.204079 200.954576 
L 367.040964 197.505237 
L 369.137944 197.486969 
L 370.531735 201.038265 
L 371.628172 206.693116 
L 371.364077 209.059748 
L 368.674198 213.198694 
L 367.968039 215.960804 
L 369.914912 226.454943 
L 376.438771 236.863618 
L 377.746807 241.558364 
L 378.180823 250.219064 
L 370.959406 266.844645 
L 369.469733 266.101453 
L 356.802112 263.775819 
L 355.456856 263.081253 
L 344.019945 252.31073 
L 337.585407 248.58626 
L 332.841639 248.758594 
L 327.038894 252.349908 
L 323.685986 252.941916 
L 316.602214 250.38889 
L 316.379023 241.521286 
" style="fill:none;stroke:#333333;stroke-opacity:0.3;"/>
    <path clip-path="url(#p4bfa4cb6cc)" d="M 378.180823 250.219064 
L 383.586893 250.924164 
L 392.222562 253.457867 
L 401.505768 249.278315 
L 403.114768 247.82838 
L 406.716885 251.540647 
L 405.804695 253.33122 
L 404.263276 263.550889 
L 403.355321 266.876339 
L 413.897211 267.159964 
L 416.670207 266.442977 
L 417.577598 268.880651 
L 417.569307 276.29419 
L 415.54183 284.43431 
L 412.744998 290.169085 
L 405.121812 303.488451 
L 400.698428 312.439692 
L 393.433321 313.645488 
L 384.548213 316.97433 
L 377.069704 318.163643 
L 371.798743 317.970071 
L 365.22598 316.044071 
L 353.631108 310.38758 
L 365.105947 284.975269 
L 372.739915 267.697434 
L 370.959406 266.844645 
L 378.180823 250.219064 
" style="fill:none;stroke:#333333;stroke-opacity:0.3;"/>
    <path clip-path="url(#p4bfa4cb6cc)" d="M 316.602214 250.38889 
L 323.685986 252.941916 
L 327.038894 252.349908 
L 332.841639 248.758594 
L 337.585407 248.58626 
L 344.019945 252.31073 
L 355.456856 263.081253 
L 356.802112 263.775819 
L 369.469733 266.101453 
L 370.959406 266.844645 
L 372.739915 267.697434 
L 365.105947 284.975269 
L 353.631108 310.38758 
L 345.256686 305.53153 
L 342.884592 303.204675 
L 341.802495 305.600725 
L 323.839421 296.649131 
L 318.261937 298.361085 
L 313.876044 301.918661 
L 307.032956 296.596928 
L 301.10124 295.646534 
L 299.836089 292.434484 
L 300.136281 289.450777 
L 301.265042 283.721925 
L 303.540031 283.073992 
L 309.264703 276.230188 
L 309.957833 272.56117 
L 312.448021 270.379811 
L 316.032045 269.907937 
L 316.957649 265.289747 
L 319.833509 262.695829 
L 320.324663 259.886963 
L 316.877749 259.63488 
L 316.602214 250.38889 
" style="fill:none;stroke:#333333;stroke-opacity:0.3;"/>
    <path clip-path="url(#p4bfa4cb6cc)" d="M 300.136281 289.450777 
L 299.836089 292.434484 
L 301.10124 295.646534 
L 307.032956 296.596928 
L 313.876044 301.918661 
L 303.774663 312.160179 
L 299.59305 316.408953 
L 297.316417 320.977319 
L 294.699185 323.605561 
L 288.326043 327.83137 
L 278.690323 333.454506 
L 276.462414 332.08555 
L 271.001228 332.331324 
L 268.382815 334.284715 
L 251.054483 333.354954 
L 243.026099 329.810041 
L 238.582539 326.657293 
L 235.215919 323.1555 
L 232.470445 318.152282 
L 231.096842 313.272743 
L 227.595573 309.940454 
L 229.281132 302.177601 
L 236.228496 300.26444 
L 242.760318 292.548096 
L 244.247464 287.366395 
L 246.160495 286.171026 
L 248.062651 282.886571 
L 250.319259 281.411821 
L 248.583648 278.863018 
L 252.312447 275.184095 
L 259.497993 275.508113 
L 264.314322 276.568548 
L 265.055263 273.968939 
L 268.818819 276.189904 
L 272.404798 276.707409 
L 274.284844 275.707886 
L 276.942015 278.879798 
L 279.700054 278.969784 
L 285.317628 284.867032 
L 288.888336 281.076111 
L 293.531361 281.541232 
L 295.249998 280.450958 
L 295.938452 286.351487 
L 298.632555 289.688774 
L 300.136281 289.450777 
" style="fill:none;stroke:#333333;stroke-opacity:0.3;"/>
    <path clip-path="url(#p4bfa4cb6cc)" d="M 316.602214 250.38889 
L 316.877749 259.63488 
L 320.324663 259.886963 
L 319.833509 262.695829 
L 316.957649 265.289747 
L 316.032045 269.907937 
L 312.448021 270.379811 
L 309.957833 272.56117 
L 309.264703 276.230188 
L 303.540031 283.073992 
L 301.265042 283.721925 
L 300.136281 289.450777 
L 298.632555 289.688774 
L 295.938452 286.351487 
L 295.249998 280.450958 
L 293.531361 281.541232 
L 288.888336 281.076111 
L 285.317628 284.867032 
L 279.700054 278.969784 
L 276.942015 278.879798 
L 274.284844 275.707886 
L 272.404798 276.707409 
L 268.818819 276.189904 
L 265.055263 273.968939 
L 264.314322 276.568548 
L 259.497993 275.508113 
L 252.312447 275.184095 
L 248.583648 278.863018 
L 247.820508 273.460852 
L 249.376895 271.941212 
L 247.576046 268.520832 
L 249.94749 267.87922 
L 253.619242 265.069616 
L 256.620912 264.074527 
L 253.324359 258.559895 
L 256.013991 255.377132 
L 260.31784 253.957792 
L 265.778572 253.892125 
L 278.162868 255.498355 
L 286.852831 254.652141 
L 292.346893 253.411569 
L 308.119493 253.105457 
L 313.296176 250.408746 
L 316.602214 250.38889 
" style="fill:none;stroke:#333333;stroke-opacity:0.3;"/>
    <path clip-path="url(#p4bfa4cb6cc)" d="M 259.068228 165.192725 
L 262.736432 166.457867 
L 264.518046 170.033777 
L 267.69915 169.531035 
L 267.347239 176.047215 
L 269.200571 178.60697 
L 271.359557 187.132105 
L 275.699811 189.960542 
L 275.992606 195.742475 
L 274.811438 200.581312 
L 276.864298 208.912071 
L 273.704809 211.412119 
L 269.977073 211.827629 
L 270.473355 216.471663 
L 272.5442 219.275896 
L 275.457214 221.167217 
L 280.924167 222.781394 
L 284.266007 222.940776 
L 285.672713 221.542931 
L 291.588423 221.327246 
L 293.248524 226.02053 
L 297.155623 229.042415 
L 298.193189 231.297593 
L 298.392177 235.840327 
L 300.399198 238.128482 
L 306.918092 235.632453 
L 308.819071 236.17276 
L 310.934734 240.781626 
L 314.911782 240.36486 
L 316.379023 241.521286 
L 316.602214 250.38889 
L 313.296176 250.408746 
L 308.119493 253.105457 
L 292.346893 253.411569 
L 286.852831 254.652141 
L 278.162868 255.498355 
L 265.778572 253.892125 
L 260.31784 253.957792 
L 256.013991 255.377132 
L 253.324359 258.559895 
L 238.733962 240.346986 
L 241.231125 237.73882 
L 245.563245 235.253107 
L 242.242072 232.161956 
L 244.125049 224.699634 
L 244.054646 222.607386 
L 241.827284 217.447255 
L 242.737978 213.094682 
L 239.333461 212.66131 
L 237.834429 210.050784 
L 238.719365 204.122549 
L 237.7909 201.321966 
L 235.188371 199.536127 
L 234.524485 198.238573 
L 235.865027 193.655135 
L 235.209993 187.927789 
L 234.049253 185.686787 
L 235.587717 184.031867 
L 236.815598 180.2706 
L 237.190293 175.69285 
L 242.300378 174.929242 
L 245.411614 170.543611 
L 256.241847 168.094128 
L 259.068228 165.192725 
" style="fill:none;stroke:#333333;stroke-opacity:0.3;"/>
   </g>
   <g id="patch_3">
    <path d="M 5 471.053314 
L 5 48.786686 
" style="fill:none;stroke:#000000;stroke-linecap:square;stroke-linejoin:miter;stroke-width:0.8;"/>
   </g>
   <g id="patch_4">
    <path d="M 518.34 471.053314 
L 518.34 48.786686 
" style="fill:none;stroke:#000000;stroke-linecap:square;stroke-linejoin:miter;stroke-width:0.8;"/>
   </g>
   <g id="patch_5">
    <path d="M 5 471.053314 
L 518.34 471.053314 
" style="fill:none;stroke:#000000;stroke-linecap:square;stroke-linejoin:miter;stroke-width:0.8;"/>
   </g>
   <g id="patch_6">
    <path d="M 5 48.786686 
L 518.34 48.786686 
" style="fill:none;stroke:#000000;stroke-linecap:square;stroke-linejoin:miter;stroke-width:0.8;"/>
   </g>
  </g>
 </g>
 <defs>
  <clipPath id="p4bfa4cb6cc">
   <rect height="422.266628" width="513.34" x="5" y="48.786686"/>
  </clipPath>
 </defs>
</svg>
