<?xml version="1.0" standalone="no"?>
<!DOCTYPE svg PUBLIC "-//W3C//DTD SVG 20010904//EN"
 "http://www.w3.org/TR/2001/REC-SVG-20010904/DTD/svg10.dtd">
<svg version="1.0" xmlns="http://www.w3.org/2000/svg"
 width="1024.000000pt" height="1024.000000pt" viewBox="0 0 1024.000000 1024.000000"
 preserveAspectRatio="xMidYMid meet">
<metadata>
Created by potrace 1.14, written by Peter Selinger 2001-2017
</metadata>
<g transform="translate(0.000000,1024.000000) scale(0.100000,-0.100000)"
fill="#000000" stroke="none">
<path d="M5063 8970 c-13 -5 -32 -24 -43 -42 -19 -31 -20 -47 -18 -276 l3
-244 33 -29 c51 -46 135 -34 171 24 16 28 20 58 24 237 3 113 2 224 -3 245
-17 76 -93 115 -167 85z"/>
<path d="M4433 8641 c-62 -39 -85 -103 -59 -164 41 -99 190 -101 232 -2 19 46
18 74 -6 112 -39 65 -112 88 -167 54z"/>
<path d="M5710 8649 c-53 -11 -90 -59 -90 -115 0 -56 22 -99 60 -119 100 -52
210 37 180 146 -18 66 -81 103 -150 88z"/>
<path d="M3940 8639 c-66 -26 -75 -89 -31 -201 15 -40 39 -104 51 -142 29 -89
55 -116 112 -116 51 0 81 18 98 59 11 27 7 45 -35 173 -61 184 -76 213 -116
227 -38 13 -46 13 -79 0z"/>
<path d="M6215 8641 c-11 -5 -27 -17 -36 -27 -22 -27 -119 -303 -119 -341 0
-48 45 -95 93 -96 58 -2 88 27 120 119 15 43 41 115 58 158 27 70 30 84 20
116 -6 20 -19 44 -30 54 -22 20 -78 29 -106 17z"/>
<path d="M3004 8167 c-42 -39 -55 -97 -31 -143 23 -44 282 -293 324 -310 44
-19 88 -12 126 19 36 28 58 92 45 127 -10 28 -241 266 -302 311 -56 42 -114
40 -162 -4z"/>
<path d="M7064 8171 c-21 -16 -99 -89 -171 -163 -127 -128 -133 -136 -133
-175 0 -53 34 -103 83 -122 69 -26 103 -7 260 148 76 75 145 148 153 163 42
80 -24 178 -119 178 -22 0 -48 -10 -73 -29z"/>
<path d="M4925 8040 c-113 -13 -324 -55 -429 -86 -835 -242 -1470 -937 -1640
-1794 -50 -249 -58 -574 -21 -830 38 -266 143 -562 287 -808 116 -199 223
-330 453 -557 229 -227 260 -267 320 -425 40 -106 61 -194 86 -374 24 -174 49
-234 117 -277 l46 -29 982 2 982 3 39 31 c61 48 81 100 104 275 24 186 48 283
97 397 56 130 88 171 281 362 203 200 303 317 408 477 282 428 414 923 383
1428 -13 198 -31 311 -81 486 -159 564 -493 1024 -974 1342 -361 238 -777 372
-1195 382 -91 2 -201 0 -245 -5z m-123 -498 c80 -39 139 -101 181 -190 l32
-67 0 -1470 0 -1470 -32 -67 c-77 -163 -233 -251 -413 -233 -41 4 -131 7 -200
6 -204 -3 -305 36 -434 169 -86 88 -136 181 -158 290 -7 36 -16 68 -21 71 -5
4 -29 9 -53 13 -226 31 -414 298 -373 531 l11 65 -46 68 c-62 90 -87 166 -93
277 -6 112 14 213 60 306 32 63 34 71 25 124 -14 89 14 209 68 296 21 35 22
38 7 100 -40 169 39 381 180 485 56 42 132 76 192 87 17 3 47 8 67 12 35 5 36
7 31 39 -3 18 2 60 11 94 35 137 108 231 224 285 58 27 78 31 149 32 46 0 83
3 83 6 0 16 78 93 118 116 85 50 139 64 233 60 73 -3 97 -8 151 -35z m963 2
c35 -17 84 -53 118 -87 l59 -59 71 -3 c133 -4 243 -66 317 -177 47 -70 70
-141 70 -213 l0 -51 68 -11 c178 -28 341 -166 393 -334 22 -69 25 -195 8 -264
-10 -39 -9 -47 10 -74 59 -82 88 -208 72 -308 -9 -59 -8 -64 25 -132 92 -183
78 -407 -35 -567 l-48 -70 9 -64 c19 -122 -22 -263 -107 -371 -62 -81 -186
-153 -295 -173 -35 -6 -36 -6 -47 -77 -16 -103 -71 -205 -158 -294 -119 -123
-237 -168 -434 -165 -64 1 -157 -2 -206 -6 -111 -8 -173 7 -262 65 -76 49
-127 116 -153 201 -20 64 -20 85 -18 1525 l3 1460 27 57 c37 80 71 122 132
162 77 51 136 67 236 62 69 -3 97 -9 145 -32z m-581 -3925 l26 -31 0 -194 c0
-115 -4 -203 -10 -215 -13 -23 -61 -49 -93 -49 -29 0 -74 39 -82 73 -4 14 -5
109 -3 212 l3 187 28 24 c42 36 98 33 131 -7z m-498 -143 c28 -28 34 -42 34
-76 0 -34 -6 -48 -34 -76 -28 -28 -42 -34 -76 -34 -68 0 -122 69 -106 136 4
15 20 39 36 55 42 43 100 41 146 -5z m1009 3 c31 -27 35 -37 35 -78 -1 -119
-150 -157 -205 -51 -19 37 -19 54 1 96 33 69 110 84 169 33z"/>
<path d="M4560 7373 c-40 -27 -49 -45 -50 -91 0 -59 47 -111 108 -119 l42 -6
0 -166 0 -166 -39 -16 c-53 -22 -76 -61 -76 -124 0 -62 39 -122 86 -132 l29
-5 2 -177 3 -176 83 -3 82 -3 0 195 0 195 -30 -10 c-21 -8 -40 -7 -65 1 -132
44 -73 263 61 222 l34 -10 0 224 c0 247 -5 269 -67 330 -57 54 -153 71 -203
37z"/>
<path d="M4168 7196 c-63 -22 -88 -45 -114 -99 -42 -91 -27 -167 47 -231 l39
-33 0 -155 0 -156 87 -80 86 -81 1 -83 1 -83 83 -3 82 -3 0 149 0 150 -85 77
-85 77 0 95 0 96 41 35 c49 42 69 85 69 147 0 83 -55 156 -139 184 -43 14 -67
13 -113 -3z"/>
<path d="M3757 6746 c-120 -33 -205 -142 -219 -281 l-3 -30 85 0 c77 0 85 2
88 20 6 32 17 37 48 20 44 -22 129 -19 175 7 50 28 84 93 74 140 -9 41 -48 94
-83 112 -42 22 -112 27 -165 12z"/>
<path d="M4007 6349 c-23 -13 -47 -62 -47 -94 0 -34 25 -82 49 -95 39 -20 98
-12 133 19 28 25 33 36 33 76 0 40 -5 51 -33 76 -25 23 -42 29 -75 29 -23 0
-50 -5 -60 -11z"/>
<path d="M3605 6241 c-66 -29 -98 -77 -119 -174 l-7 -28 46 27 c35 20 61 27
103 28 l57 1 3 -63 c3 -53 0 -63 -15 -68 -118 -40 -198 -106 -244 -199 -83
-168 -54 -347 76 -481 92 -94 204 -128 454 -140 l141 -7 0 56 c0 31 10 86 21
122 l22 65 78 0 78 0 3 100 3 100 -83 0 c-75 0 -83 2 -80 18 2 10 53 67 115
125 l112 107 231 0 230 0 0 90 0 90 -268 0 -269 0 -102 -98 -102 -97 -52 50
c-29 28 -78 63 -109 78 l-58 27 0 67 c-1 107 -40 173 -122 208 -49 20 -94 19
-143 -4z m226 -463 c83 -24 158 -119 159 -198 1 -192 -213 -297 -351 -173 -97
88 -106 213 -23 312 53 64 130 85 215 59z"/>
<path d="M4498 5510 l-3 -130 28 -1 c15 -1 32 -3 37 -4 6 -1 33 -3 60 -4 l50
-1 -2 -472 -3 -473 -202 0 -202 0 -56 55 c-92 91 -92 90 -98 290 l-4 175 -171
3 -171 2 -39 45 -40 45 -81 0 c-71 0 -81 -2 -81 -17 0 -34 48 -120 86 -157 65
-64 106 -79 224 -85 l105 -6 6 -115 c4 -98 9 -123 33 -173 41 -84 124 -170
204 -209 l67 -33 220 0 c191 0 224 2 252 18 44 23 72 54 94 102 17 38 19 77
19 658 l0 617 -164 0 -165 0 -3 -130z"/>
<path d="M4326 5205 c-82 -29 -122 -96 -114 -192 4 -47 10 -59 46 -96 l42 -43
0 -122 0 -122 78 0 79 0 6 121 6 122 36 32 c81 75 85 183 10 256 -56 55 -117
70 -189 44z"/>
<path d="M5525 7371 c-48 -22 -79 -54 -100 -103 -12 -30 -15 -82 -15 -262 l0
-224 30 11 c43 16 98 -14 124 -67 17 -36 18 -43 5 -79 -19 -54 -59 -82 -115
-81 l-44 1 0 -189 0 -188 80 0 80 0 0 179 c0 178 0 180 23 186 34 11 75 54 88
93 22 66 -14 142 -76 162 l-35 12 0 168 0 168 42 7 c49 9 103 56 114 100 23
93 -94 155 -201 106z"/>
<path d="M5935 7194 c-79 -28 -135 -126 -120 -213 8 -47 55 -117 90 -133 24
-11 25 -15 25 -108 l0 -96 -85 -73 -85 -73 0 -154 0 -154 80 0 80 0 0 93 0 92
85 69 85 68 0 157 0 158 39 31 c124 100 82 298 -74 341 -51 14 -70 13 -120 -5z"/>
<path d="M6310 6732 c-19 -9 -45 -33 -58 -52 -20 -29 -23 -44 -20 -88 4 -45
10 -59 41 -89 30 -31 44 -37 92 -41 38 -3 70 1 101 13 25 9 46 16 48 14 1 -2
7 -17 14 -32 12 -27 13 -28 89 -25 l78 3 -3 50 c-7 102 -72 196 -167 241 -63
30 -162 33 -215 6z"/>
<path d="M6112 6355 c-64 -28 -78 -126 -25 -180 38 -37 109 -36 147 3 52 55
42 125 -23 169 -39 26 -54 28 -99 8z"/>
<path d="M6485 6248 c-77 -27 -130 -122 -123 -225 l3 -48 -58 -28 c-31 -16
-80 -51 -107 -79 l-51 -51 -27 24 c-15 14 -62 57 -105 97 l-77 72 -264 0 -265
0 -3 -86 c-2 -65 0 -88 10 -92 8 -2 109 -2 225 0 l212 6 113 -111 c61 -61 112
-119 112 -129 0 -16 -9 -18 -75 -18 l-75 0 0 -100 0 -100 76 0 75 0 16 -37
c12 -31 30 -132 33 -188 0 -16 282 -1 375 20 138 30 228 90 292 195 61 100 70
265 20 373 -43 95 -148 184 -259 221 -15 4 -18 17 -18 65 0 57 2 61 26 67 35
9 119 -11 154 -36 34 -24 42 -17 34 29 -23 125 -151 200 -269 159z m53 -473
c57 -24 110 -82 128 -140 19 -66 10 -124 -30 -183 -79 -118 -239 -131 -333
-29 -22 24 -46 61 -53 82 -16 47 -8 121 19 173 47 91 173 136 269 97z"/>
<path d="M5412 5006 l3 -634 30 -43 c55 -78 73 -84 292 -87 223 -4 287 7 370
64 59 41 122 118 155 190 18 39 23 72 26 162 l4 112 67 0 c182 0 319 94 355
243 l6 27 -85 0 c-83 0 -85 -1 -107 -31 -40 -54 -67 -62 -238 -66 l-155 -4 -5
-177 c-6 -198 -6 -199 -83 -273 -69 -68 -76 -70 -273 -69 -97 1 -182 4 -190 7
-12 4 -14 83 -14 474 l0 469 85 0 85 0 0 135 0 135 -165 0 -165 0 2 -634z"/>
<path d="M5775 5204 c-45 -25 -65 -45 -86 -86 -37 -73 -12 -180 52 -216 l29
-17 0 -127 0 -128 85 0 85 0 0 129 c0 125 1 129 24 144 31 20 66 94 66 137 0
50 -35 114 -79 144 -50 35 -132 44 -176 20z"/>
<path d="M2489 7341 c-42 -43 -41 -99 4 -143 49 -49 199 -173 224 -187 62 -32
153 10 153 71 0 16 -4 38 -10 48 -9 16 -171 162 -244 218 -42 32 -90 29 -127
-7z"/>
<path d="M7630 7353 c-46 -31 -240 -205 -250 -223 -31 -57 18 -130 87 -130 21
0 50 8 63 17 59 41 238 194 244 209 15 39 6 76 -28 110 -39 39 -77 44 -116 17z"/>
<path d="M2103 6455 c-32 -23 -47 -77 -33 -120 6 -19 19 -39 28 -44 36 -19
300 -101 326 -101 41 0 86 49 86 93 0 64 -32 89 -189 141 -150 49 -185 54
-218 31z"/>
<path d="M7920 6419 c-163 -55 -180 -68 -180 -136 0 -34 6 -50 26 -70 23 -23
31 -25 72 -19 26 3 103 25 172 47 144 47 170 67 170 130 0 51 -43 99 -87 98
-15 0 -93 -23 -173 -50z"/>
<path d="M1871 5494 c-63 -53 -63 -135 1 -189 l30 -25 249 0 c275 0 295 4 324
60 19 36 19 71 1 115 -26 61 -45 65 -325 65 l-249 0 -31 -26z"/>
<path d="M7794 5501 c-33 -20 -54 -64 -54 -114 0 -21 11 -41 39 -68 l39 -39
253 0 c233 0 257 2 285 19 66 40 67 141 3 195 l-31 26 -251 0 c-230 0 -255 -2
-283 -19z"/>
<path d="M2480 4687 c-41 -18 -110 -46 -152 -61 -91 -33 -109 -50 -115 -109
-4 -36 -1 -48 22 -75 35 -42 72 -42 172 2 43 19 104 44 135 56 102 38 138 83
118 146 -13 39 -53 74 -84 74 -11 0 -55 -15 -96 -33z"/>
<path d="M7609 4691 c-22 -23 -29 -39 -29 -70 0 -56 29 -84 130 -125 47 -19
112 -46 145 -60 76 -32 116 -33 152 -2 23 20 28 32 28 69 0 58 -28 89 -103
117 -30 12 -97 39 -148 60 -112 48 -136 49 -175 11z"/>
<path d="M2679 4169 c-157 -137 -167 -154 -134 -219 19 -36 43 -50 88 -50 28
0 52 16 143 91 132 110 143 123 144 172 0 54 -43 97 -98 97 -36 0 -50 -9 -143
-91z"/>
<path d="M7354 4242 c-47 -38 -57 -93 -23 -136 23 -29 174 -160 217 -188 69
-45 162 0 162 77 0 29 -7 44 -33 69 -49 47 -196 169 -220 183 -31 18 -79 15
-103 -5z"/>
<path d="M3156 3453 c-179 -175 -196 -196 -196 -242 0 -78 73 -140 148 -126
26 5 66 37 171 137 75 71 151 149 169 171 30 37 33 47 29 87 -4 35 -13 51 -41
77 -31 28 -43 33 -87 33 l-51 0 -142 -137z"/>
<path d="M6812 3578 c-38 -19 -65 -73 -59 -120 5 -37 21 -57 164 -200 165
-165 199 -189 259 -174 15 4 42 22 61 41 28 28 33 40 33 81 l0 48 -152 154
c-84 84 -165 160 -180 168 -32 16 -93 17 -126 2z"/>
<path d="M4079 2645 c-30 -16 -59 -70 -59 -110 0 -40 27 -89 59 -108 27 -16
105 -17 1036 -17 1116 0 1052 -4 1081 65 28 68 8 140 -48 171 -36 21 -2032 19
-2069 -1z"/>
<path d="M4093 2185 c-77 -33 -95 -138 -34 -199 l31 -31 1021 -3 1021 -2 33
33 c19 19 37 46 41 61 10 43 -12 102 -49 128 l-32 23 -1000 2 c-843 2 -1005 0
-1032 -12z"/>
<path d="M4524 1713 c17 -94 106 -219 193 -269 94 -56 145 -64 387 -64 243 0
298 8 390 58 99 53 197 185 208 277 l3 30 -102 3 -102 3 -17 -33 c-21 -43 -52
-76 -89 -96 -25 -14 -69 -18 -261 -20 -148 -2 -246 0 -272 7 -54 15 -96 51
-116 101 l-16 40 -106 0 -106 0 6 -37z"/>
</g>
</svg>
